<svg width="34" height="34" viewBox="0 0 34 34" fill="none" xmlns="http://www.w3.org/2000/svg">
<rect width="34" height="34" rx="17" fill="#F27405"/>
<g clip-path="url(#clip0_9_871)">
<path d="M10.5625 9.12506C10.7522 9.25535 10.9146 9.40582 11.0763 9.56882C11.1143 9.60677 11.1143 9.60677 11.1531 9.64549C11.2376 9.72983 11.3218 9.8144 11.406 9.89897C11.4667 9.95968 11.5274 10.0203 11.5881 10.081C11.7185 10.2114 11.8488 10.3419 11.9791 10.4725C12.1674 10.6613 12.3558 10.8499 12.5443 11.0385C12.8502 11.3445 13.156 11.6507 13.4616 11.9569C13.7584 12.2543 14.0553 12.5516 14.3523 12.8489C14.3706 12.8672 14.3889 12.8856 14.4078 12.9044C14.4997 12.9965 14.5916 13.0885 14.6836 13.1805C15.4455 13.943 16.2072 14.7059 16.9688 15.4688C17.0651 15.4259 17.1308 15.377 17.205 15.3024C17.2266 15.2808 17.2483 15.2593 17.2705 15.237C17.3058 15.2013 17.3058 15.2013 17.3418 15.1649C17.367 15.1397 17.3922 15.1145 17.4181 15.0885C17.5027 15.0037 17.5871 14.9187 17.6715 14.8337C17.732 14.773 17.7925 14.7123 17.8531 14.6516C17.9836 14.5207 18.114 14.3896 18.2443 14.2586C18.433 14.0688 18.6219 13.8793 18.8109 13.6899C19.1178 13.3822 19.4246 13.0745 19.7313 12.7666C19.7497 12.7482 19.7681 12.7297 19.787 12.7107C20.0473 12.4494 20.3076 12.188 20.5678 11.9265C20.5861 11.9081 20.6045 11.8897 20.6233 11.8707C20.6416 11.8524 20.6599 11.834 20.6788 11.8151C20.984 11.5083 21.2895 11.2019 21.5952 10.8956C21.7837 10.7068 21.972 10.5177 22.16 10.3284C22.2889 10.1986 22.4181 10.069 22.5475 9.93965C22.622 9.86504 22.6964 9.7903 22.7707 9.71535C22.8513 9.63397 22.9323 9.55298 23.0134 9.47208C23.0481 9.43671 23.0481 9.43671 23.0836 9.40063C23.3236 9.16295 23.5973 8.99264 23.9434 8.98834C24.2262 8.99318 24.5134 9.07792 24.7188 9.28131C24.9744 9.59345 25.0272 9.85878 25.0061 10.2512C24.9717 10.5971 24.6641 10.8765 24.4313 11.1076C24.3933 11.1456 24.3933 11.1456 24.3546 11.1844C24.2702 11.2689 24.1857 11.3531 24.1011 11.4373C24.0404 11.498 23.9797 11.5587 23.9191 11.6194C23.7887 11.7498 23.6582 11.8801 23.5276 12.0104C23.3388 12.1986 23.1501 12.3871 22.9616 12.5756C22.6555 12.8815 22.3494 13.1872 22.0431 13.4929C21.7457 13.7897 21.4484 14.0866 21.1512 14.3836C21.1329 14.4019 21.1145 14.4202 21.0956 14.4391C21.0036 14.531 20.9116 14.6229 20.8196 14.7149C20.057 15.4768 19.2942 16.2385 18.5313 17.0001C18.6704 17.1668 18.8174 17.3215 18.9716 17.4744C19.009 17.5116 19.009 17.5116 19.0472 17.5497C19.1304 17.6325 19.2137 17.7153 19.297 17.7981C19.3568 17.8576 19.4166 17.9172 19.4764 17.9768C19.5884 18.0883 19.7004 18.1998 19.8124 18.3113C20.0326 18.5303 20.2526 18.7496 20.4725 18.9689C20.5072 19.0035 20.5419 19.0381 20.5766 19.0726C20.6291 19.125 20.6817 19.1775 20.7343 19.2299C20.9321 19.4272 21.13 19.6244 21.3279 19.8217C21.3459 19.8397 21.364 19.8577 21.3826 19.8763C21.6757 20.1683 21.9689 20.4602 22.2622 20.7519C22.5638 21.0519 22.865 21.3521 23.166 21.6526C23.3515 21.8378 23.5371 22.0227 23.7231 22.2072C23.8506 22.3338 23.9778 22.4606 24.1048 22.5877C24.178 22.6609 24.2513 22.734 24.3249 22.8067C24.4049 22.8858 24.4843 22.9654 24.5636 23.0451C24.5868 23.0678 24.6099 23.0904 24.6337 23.1137C24.8994 23.383 25.0113 23.6636 25.0142 24.0387C25.0083 24.3206 24.8989 24.5396 24.711 24.7481C24.673 24.7814 24.6339 24.8133 24.5938 24.8438C24.5735 24.8596 24.5532 24.8754 24.5324 24.8917C24.2759 25.0539 23.948 25.0364 23.6563 25.0001C23.1842 24.8782 22.776 24.3116 22.445 23.9798C22.3859 23.9207 22.3267 23.8615 22.2675 23.8024C22.1407 23.6755 22.0138 23.5486 21.887 23.4216C21.7037 23.2381 21.5204 23.0546 21.337 22.8712C21.0393 22.5735 20.7417 22.2757 20.4442 21.9779C20.1554 21.6887 19.8665 21.3996 19.5776 21.1106C19.5508 21.0838 19.5508 21.0838 19.5235 21.0565C19.434 20.967 19.3445 20.8774 19.255 20.7879C18.5136 20.0462 17.7724 19.3044 17.0313 18.5626C16.9353 18.6054 16.8696 18.654 16.7956 18.7284C16.7741 18.7498 16.7526 18.7713 16.7305 18.7934C16.6954 18.8288 16.6954 18.8288 16.6596 18.865C16.6346 18.8901 16.6096 18.9151 16.5838 18.941C16.4997 19.0253 16.4158 19.1098 16.3319 19.1943C16.2718 19.2547 16.2116 19.315 16.1514 19.3754C16.0217 19.5055 15.8921 19.6357 15.7625 19.766C15.5749 19.9547 15.387 20.1431 15.1991 20.3315C14.8939 20.6375 14.5888 20.9435 14.2838 21.2497C14.2655 21.268 14.2473 21.2864 14.2284 21.3052C13.9696 21.5651 13.7108 21.825 13.4521 22.0849C13.4339 22.1032 13.4157 22.1215 13.397 22.1404C13.3697 22.1678 13.3697 22.1678 13.3419 22.1957C13.0383 22.5007 12.7345 22.8054 12.4306 23.11C12.2432 23.2977 12.056 23.4856 11.8691 23.6738C11.7409 23.8029 11.6124 23.9318 11.4838 24.0605C11.4097 24.1346 11.3357 24.2089 11.2619 24.2835C11.1817 24.3644 11.1011 24.445 11.0205 24.5255C10.9975 24.5488 10.9746 24.5722 10.9509 24.5963C10.6454 24.8989 10.3818 25.0108 9.95915 25.012C9.66555 25.0069 9.48932 24.9255 9.2715 24.7305C9.04733 24.4854 8.97726 24.2382 8.98385 23.9127C9.01485 23.3039 9.59199 22.9037 9.99471 22.5018C10.0545 22.4421 10.1143 22.3823 10.174 22.3225C10.3022 22.1943 10.4305 22.0661 10.5588 21.938C10.7442 21.7528 10.9296 21.5675 11.115 21.3822C11.4158 21.0814 11.7167 20.7807 12.0177 20.4801C12.3098 20.1882 12.602 19.8963 12.894 19.6043C12.9121 19.5863 12.9301 19.5683 12.9487 19.5497C13.0392 19.4593 13.1297 19.3688 13.2201 19.2784C13.9696 18.5292 14.7191 17.7802 15.4688 17.0313C15.3299 16.865 15.1833 16.7104 15.0296 16.5578C15.0048 16.533 14.98 16.5082 14.9544 16.4827C14.8717 16.4001 14.7888 16.3177 14.7059 16.2352C14.6464 16.1758 14.5869 16.1165 14.5274 16.0571C14.3995 15.9295 14.2715 15.8019 14.1435 15.6743C13.941 15.4726 13.7387 15.2707 13.5364 15.0688C13.4671 14.9996 13.3978 14.9304 13.3285 14.8613C13.3026 14.8353 13.3026 14.8353 13.2761 14.8089C13.0792 14.6124 12.8824 14.416 12.6855 14.2196C12.6675 14.2017 12.6496 14.1837 12.631 14.1652C12.3394 13.8743 12.0477 13.5836 11.756 13.2928C11.4561 12.9939 11.1564 12.6949 10.8569 12.3957C10.6723 12.2113 10.4875 12.0271 10.3026 11.8431C10.1759 11.717 10.0493 11.5907 9.92294 11.4643C9.85006 11.3914 9.77709 11.3186 9.70395 11.246C9.62457 11.1672 9.54547 11.088 9.46645 11.0088C9.44344 10.9861 9.42044 10.9634 9.39673 10.94C9.10923 10.6502 8.98725 10.3884 8.98852 9.98146C8.99272 9.79718 9.02426 9.65683 9.12501 9.50006C9.13597 9.48068 9.14693 9.46131 9.15822 9.44134C9.29321 9.22431 9.52287 9.08548 9.76527 9.01483C10.0462 8.96196 10.3131 8.97999 10.5625 9.12506Z" fill="white"/>
</g>
<defs>
<clipPath id="clip0_9_871">
<rect width="16" height="16" fill="white" transform="translate(9 9)"/>
</clipPath>
</defs>
</svg>
